<svg width="150" height="150" viewBox="0 0 24 24" xmlns="http://www.w3.org/2000/svg">
  <path d="M18.75 4A3.25 3.25 0 0 1 22 7.25v9.505a3.25 3.25 0 0 1-3.25 3.25H5.25A3.25 3.25 0 0 1 2 16.755V7.25a3.25 3.25 0 0 1 3.066-3.245L5.25 4z" fill="none" stroke="#d28460" stroke-width="1.5" stroke-linejoin="round"/>
  <path d="M7.5 8.5a1.5 1.5 0 1 1 0 3.001 1.5 1.5 0 0 1 0-3.001m1.753 4a.75.75 0 0 1 .75.75v.582c0 1.272-.969 1.918-2.502 1.918S5 15.104 5 13.831v-.581a.75.75 0 0 1 .75-.75z" fill="#60d284" fill-rule="evenodd"/>
  <path d="M11.37 9.002a1.248 1.248 0 1 1 0 2.496 1.248 1.248 0 0 1 0-2.496m-.537 3.497 1.417.001a.75.75 0 0 1 .75.75v.333c0 .963-.765 1.417-1.875 1.417q-.174 0-.337-.015.169-.403.206-.9l.009-.253v-.582c0-.269-.061-.524-.17-.751m4.417.001h3a.75.75 0 0 1 .102 1.493L18.25 14h-3a.75.75 0 0 1-.102-1.493zh3zm0-3h3a.75.75 0 0 1 .102 1.493L18.25 11h-3a.75.75 0 0 1-.102-1.493zh3z" fill="#8460d2" fill-rule="evenodd"/>
</svg>
